<?xml version="1.0" standalone="no"?>
<!DOCTYPE svg PUBLIC "-//W3C//DTD SVG 20010904//EN"
 "http://www.w3.org/TR/2001/REC-SVG-20010904/DTD/svg10.dtd">
<svg version="1.0" xmlns="http://www.w3.org/2000/svg"
 width="1341.000000pt" height="1341.000000pt" viewBox="0 0 1341.000000 1341.000000"
 preserveAspectRatio="xMidYMid meet">
<metadata>
Created by potrace 1.11, written by Peter Selinger 2001-2013
</metadata>
<g transform="translate(0.000000,1341.000000) scale(0.100000,-0.100000)"
fill="#000000" stroke="none">
<path d="M5395 13310 c-3 -5 -2 -10 4 -10 11 0 7 -19 -11 -57 -6 -12 -15 -20
-20 -17 -4 3 -8 2 -9 -3 -2 -22 -8 -45 -13 -51 -8 -7 -56 -9 -56 -2 0 3 -21 5
-47 5 -47 0 -48 -1 -51 -33 -4 -37 -24 -49 -98 -57 -30 -3 -44 0 -44 8 0 8 -3
8 -8 2 -4 -6 -15 -11 -24 -12 -34 -1 -39 -3 -34 -12 3 -4 -19 -18 -49 -31 -30
-13 -52 -27 -49 -32 5 -8 -25 -44 -35 -42 -3 1 -5 -1 -4 -5 1 -7 -18 -26 -32
-30 -34 -12 -63 -28 -82 -48 -12 -13 -34 -23 -48 -23 -18 0 -28 -7 -35 -26 -7
-17 -15 -24 -25 -20 -8 3 -15 1 -15 -4 0 -6 -9 -10 -19 -10 -11 0 -26 -6 -33
-12 -7 -7 -20 -14 -28 -16 -8 -2 -18 -9 -22 -15 -4 -7 -8 -8 -8 -3 0 5 -6 3
-13 -3 -8 -6 -17 -8 -20 -4 -4 3 -7 2 -7 -4 0 -9 -6 -11 -50 -15 -11 -1 -20
-5 -20 -9 0 -5 -76 -34 -115 -44 -5 -1 -21 -7 -35 -12 -14 -6 -28 -9 -32 -6
-5 2 -8 -1 -8 -7 0 -6 -4 -8 -10 -5 -5 3 -10 1 -10 -4 0 -6 -9 -11 -20 -11
-11 0 -20 -5 -20 -11 0 -5 -4 -8 -9 -4 -5 3 -12 1 -16 -5 -3 -5 -15 -10 -26
-10 -11 0 -18 -4 -15 -9 4 -5 -5 -8 -19 -6 -14 1 -25 -2 -25 -6 0 -5 -6 -9
-14 -9 -8 0 -21 -6 -28 -12 -7 -7 -22 -14 -33 -15 -11 -1 -40 -5 -65 -8 -25
-4 -51 -7 -57 -8 -7 0 -13 -3 -13 -7 0 -3 -9 -6 -20 -7 -11 -1 -27 -9 -36 -17
-14 -14 -20 -17 -39 -16 -3 0 -15 -9 -27 -20 -12 -11 -24 -20 -28 -20 -5 0
-10 -26 -13 -67 0 -7 -7 -15 -14 -17 -8 -3 -11 -10 -8 -16 3 -5 2 -10 -4 -10
-6 0 -18 -15 -27 -32 -9 -18 -22 -36 -28 -40 -6 -4 -7 -8 -1 -8 5 0 0 -7 -12
-15 -26 -18 -50 -64 -59 -110 -6 -32 -23 -39 -53 -21 -10 7 -70 -51 -95 -92
-7 -11 -18 -73 -19 -109 0 -7 -3 -13 -6 -13 -4 0 -7 -15 -8 -32 -1 -18 -5 -49
-8 -67 -5 -25 -3 -38 7 -45 22 -16 36 -48 33 -76 -1 -14 2 -31 7 -37 7 -9 7
-13 1 -13 -6 0 -9 -13 -7 -30 2 -16 0 -30 -5 -30 -5 0 -7 -9 -4 -20 3 -11 10
-20 15 -20 5 0 7 -4 4 -9 -3 -5 1 -11 9 -15 8 -3 15 -17 15 -31 0 -14 4 -25 9
-25 5 0 5 -16 1 -36 -9 -41 4 -64 37 -64 21 0 45 -42 64 -112 7 -27 17 -48 21
-48 4 0 7 -3 6 -7 -1 -5 5 -24 14 -44 9 -20 19 -47 23 -60 4 -13 11 -26 16
-29 4 -3 9 -12 11 -20 2 -8 9 -21 16 -29 8 -8 11 -22 9 -32 -3 -11 -2 -19 2
-19 3 0 15 -27 24 -60 10 -33 22 -60 28 -60 5 0 9 5 9 11 0 6 8 9 17 7 18 -3
24 -34 12 -53 -10 -15 4 -40 21 -40 8 0 15 -7 15 -15 1 -8 6 -24 12 -35 6 -11
12 -24 12 -30 3 -24 13 -45 22 -45 6 0 7 -5 3 -12 -5 -7 0 -9 14 -6 13 4 23 0
26 -8 3 -8 12 -14 20 -14 9 0 13 -10 12 -30 -1 -17 4 -36 11 -42 10 -8 13 -6
13 9 0 11 6 20 14 20 15 0 15 -8 -1 -47 -8 -18 -7 -27 1 -32 6 -5 7 -8 1 -8
-5 0 -2 -5 7 -11 14 -8 17 -18 12 -52 -10 -72 -10 -82 1 -89 6 -5 5 -8 -4 -8
-11 0 -11 -3 0 -17 9 -11 10 -14 2 -9 -9 5 -11 2 -7 -8 8 -22 38 -29 79 -17
24 6 35 6 35 -1 0 -6 6 -6 15 2 8 7 15 21 15 32 0 10 7 21 15 24 8 4 12 10 9
15 -3 5 2 12 10 15 9 3 16 12 16 19 0 8 7 21 16 29 8 9 13 16 9 16 -3 0 3 9
13 20 11 12 28 38 38 60 20 41 35 53 29 23 -2 -10 -4 -23 -4 -29 -1 -5 -9 -19
-18 -30 -19 -21 -51 -74 -52 -86 -1 -5 -1 -13 -1 -18 0 -6 -12 -22 -26 -35
-19 -17 -25 -34 -25 -62 0 -55 3 -77 11 -83 4 -3 10 -21 13 -40 3 -19 10 -52
15 -72 5 -20 7 -39 4 -42 -3 -4 0 -6 6 -6 7 0 12 -9 12 -19 0 -11 5 -23 10
-26 6 -3 10 -15 10 -26 0 -19 4 -21 53 -21 31 -1 32 -21 1 -27 -10 -1 -26 -9
-35 -17 -9 -8 -19 -11 -22 -7 -4 3 -7 1 -7 -6 0 -7 -3 -10 -7 -8 -5 3 -8 -14
-7 -36 1 -23 -3 -48 -9 -54 -5 -7 -6 -13 -2 -13 4 0 2 -6 -4 -14 -26 -31 -46
-198 -30 -243 6 -15 4 -25 -4 -30 -7 -4 -21 -25 -30 -45 -10 -20 -31 -51 -48
-67 -17 -17 -28 -31 -24 -31 3 0 -6 -11 -21 -25 -24 -23 -25 -26 -13 -55 8
-16 17 -30 21 -30 4 0 3 -13 -2 -30 -5 -16 -6 -30 -2 -30 4 0 2 -4 -5 -8 -6
-4 -14 -26 -18 -50 -3 -23 -15 -58 -27 -78 -11 -19 -18 -37 -15 -40 3 -3 -3
-21 -13 -40 -11 -18 -16 -36 -11 -38 11 -7 2 -56 -10 -56 -5 0 -9 -7 -9 -15 0
-8 -7 -15 -15 -15 -8 0 -14 -3 -13 -7 1 -5 -4 -21 -11 -38 -7 -16 -15 -41 -18
-55 -2 -13 -6 -27 -9 -29 -2 -2 3 -12 12 -22 13 -14 13 -20 2 -38 -7 -12 -16
-21 -21 -21 -4 0 -5 -5 -1 -12 4 -6 0 -16 -8 -22 -8 -6 -17 -19 -21 -29 -4
-10 -11 -15 -17 -12 -5 3 -10 1 -10 -4 0 -6 5 -11 12 -11 6 0 8 -3 5 -7 -4 -3
-2 -11 3 -18 6 -8 0 -22 -20 -46 -34 -40 -36 -48 -12 -45 9 2 23 -6 30 -16 12
-16 12 -22 0 -35 -9 -12 -9 -15 -1 -9 9 5 11 2 7 -8 -3 -9 -10 -13 -15 -10 -5
3 -6 -2 -2 -11 3 -10 2 -20 -3 -24 -5 -3 -20 -26 -32 -51 -13 -25 -37 -62 -55
-82 -67 -76 -87 -103 -87 -119 0 -9 -7 -22 -15 -29 -8 -7 -15 -17 -15 -22 0
-10 -94 -104 -110 -110 -5 -1 -11 -15 -12 -30 -1 -16 -8 -28 -14 -28 -7 0 -14
-5 -16 -10 -2 -6 -12 -12 -23 -12 -19 -2 -20 -9 -19 -112 1 -61 -1 -115 -5
-121 -3 -5 -7 -21 -9 -35 -2 -13 -7 -27 -10 -30 -4 -3 -7 -12 -7 -20 1 -8 -3
-21 -8 -27 -5 -7 -6 -13 -2 -13 4 0 2 -7 -5 -15 -7 -8 -9 -15 -5 -15 4 0 2 -6
-4 -13 -6 -8 -9 -16 -6 -19 3 -3 -2 -21 -10 -41 -8 -21 -12 -37 -8 -37 4 0 2
-5 -4 -11 -6 -6 -9 -18 -6 -25 3 -8 1 -14 -4 -14 -5 0 -10 -11 -11 -25 -3 -36
-6 -49 -14 -55 -4 -3 -10 -21 -13 -39 -3 -19 -9 -39 -13 -45 -3 -6 -8 -20 -9
-30 -2 -11 -8 -25 -14 -32 -6 -7 -8 -18 -4 -24 3 -5 -1 -10 -10 -10 -9 0 -14
-4 -10 -10 5 -8 -11 -47 -26 -60 -14 -13 -119 -173 -119 -181 0 -6 -4 -7 -10
-4 -5 3 -10 1 -10 -5 0 -6 -9 -20 -20 -32 -20 -22 -22 -34 -22 -163 0 -27 -3
-54 -6 -59 -3 -5 -5 -41 -5 -80 -1 -54 -5 -75 -19 -90 -10 -11 -18 -26 -18
-33 0 -7 -4 -13 -8 -13 -5 0 -9 -6 -10 -12 0 -7 -3 -24 -7 -38 -8 -36 -18
-118 -18 -167 -1 -24 -5 -43 -10 -43 -4 0 -7 -8 -5 -17 1 -10 0 -23 -4 -28 -9
-14 -18 -92 -23 -186 -2 -41 -9 -88 -15 -105 -6 -16 -14 -56 -16 -88 -3 -33
-7 -63 -10 -68 -3 -4 -1 -8 5 -8 5 0 2 -15 -7 -32 -17 -34 -21 -67 -25 -223
-2 -74 -5 -90 -18 -93 -10 -2 -20 -13 -24 -25 -4 -12 -8 -25 -10 -29 -1 -5 -3
-18 -4 -31 0 -13 -10 -33 -21 -44 -10 -12 -22 -34 -24 -49 -3 -15 -10 -32 -15
-37 -5 -5 -7 -16 -4 -24 3 -8 0 -19 -7 -23 -8 -5 -15 -24 -15 -42 -1 -18 -5
-44 -10 -58 -4 -14 -9 -36 -10 -50 -12 -120 -20 -187 -25 -200 -1 -3 -1 -9 0
-15 8 -29 6 -92 -3 -103 -6 -8 -6 -12 2 -12 7 0 9 -5 4 -12 -4 -7 -8 -15 -8
-18 -1 -3 -5 -27 -10 -55 -4 -27 -9 -93 -10 -146 -1 -52 -4 -100 -8 -106 -4
-5 -3 -13 1 -17 4 -4 7 -13 7 -19 2 -28 18 -87 24 -87 4 0 7 -8 7 -17 3 -75
20 -153 33 -153 5 0 14 -18 21 -40 7 -22 17 -40 22 -40 4 0 8 -6 8 -14 0 -7 7
-26 14 -42 8 -15 12 -32 9 -37 -3 -6 -2 -8 3 -5 5 3 20 -12 34 -33 13 -21 30
-39 37 -39 7 0 12 -3 11 -8 -4 -19 15 -39 33 -35 11 3 21 -1 25 -11 3 -9 12
-16 18 -16 7 0 18 -10 25 -23 7 -12 28 -30 48 -40 34 -17 35 -17 54 4 19 23
24 18 31 -26 2 -11 7 -23 11 -26 4 -3 9 -16 10 -27 2 -27 2 -27 42 -2 31 19
34 19 50 4 9 -9 13 -20 8 -23 -11 -8 -15 -31 -6 -30 28 4 42 -2 36 -17 -5 -13
-2 -15 15 -9 12 3 22 2 22 -3 0 -5 11 -8 25 -7 13 2 24 0 23 -3 -3 -11 22 -52
31 -52 5 0 12 11 15 25 10 41 53 18 60 -32 9 -72 41 -153 61 -153 22 -1 55
-36 57 -61 2 -22 5 -25 19 -16 9 6 25 7 35 2 11 -4 30 -9 43 -11 25 -3 61 -35
61 -54 0 -6 5 -8 10 -5 6 3 10 1 10 -5 0 -6 4 -8 10 -5 5 3 10 2 10 -3 0 -14
47 -62 54 -55 3 4 6 -2 6 -12 0 -25 39 -57 62 -49 15 4 24 -6 16 -20 -2 -2 6
-14 17 -26 11 -12 20 -29 20 -38 0 -12 9 -17 28 -17 16 -1 32 -7 36 -14 7 -11
10 -11 14 0 4 11 6 11 6 1 1 -7 5 -10 11 -7 5 3 10 2 10 -4 0 -6 6 -8 14 -5
11 4 17 -5 22 -30 6 -33 10 -38 30 -35 4 0 10 -5 15 -12 4 -7 16 -13 26 -14
65 -7 78 -26 77 -110 -1 -38 3 -75 7 -80 4 -6 8 -20 8 -30 1 -40 5 -55 13 -55
4 0 8 -9 8 -20 0 -12 11 -32 25 -46 14 -14 25 -29 25 -33 0 -5 7 -14 15 -21 9
-7 14 -15 11 -17 -2 -2 2 -16 10 -31 10 -20 11 -29 1 -41 -8 -10 -9 -13 0 -8
8 5 11 -7 11 -40 0 -27 1 -50 2 -53 1 -3 3 -22 4 -42 2 -21 7 -43 13 -50 5 -7
8 -23 7 -36 0 -12 2 -22 5 -22 7 0 34 -85 31 -96 -1 -4 2 -10 7 -13 5 -3 17
-24 27 -45 10 -21 31 -51 47 -66 15 -16 25 -31 22 -34 -4 -3 -1 -6 5 -6 7 0
12 -7 12 -16 0 -18 25 -46 34 -37 3 4 7 1 7 -5 2 -21 4 -27 12 -39 4 -6 3 -14
-3 -18 -6 -4 -8 -11 -5 -16 4 -5 8 -18 10 -30 2 -12 12 -27 22 -35 10 -7 14
-14 9 -14 -5 0 -3 -7 4 -15 6 -8 9 -19 5 -25 -3 -5 -1 -10 5 -10 6 0 8 -4 5
-10 -3 -5 -1 -10 5 -10 6 0 9 -4 6 -9 -3 -5 2 -11 12 -13 21 -6 75 15 66 25
-4 4 -2 7 5 7 7 0 10 4 6 9 -3 5 0 13 6 16 6 4 10 26 9 49 -4 84 5 98 30 51 7
-14 20 -25 27 -25 8 0 12 4 9 9 -3 5 1 12 10 15 22 8 26 8 19 -4 -8 -13 8 -13
21 0 15 15 46 -12 51 -46 5 -36 5 -40 -1 -87 -5 -37 -5 -38 24 -33 28 4 35 -3
31 -28 -1 -5 2 -12 8 -15 5 -4 12 -18 14 -32 3 -15 17 -52 31 -83 15 -32 27
-68 28 -82 1 -13 5 -24 8 -24 4 0 7 -22 7 -50 1 -40 8 -58 35 -92 18 -24 37
-46 43 -50 14 -10 25 26 23 73 -1 42 20 77 30 50 8 -24 48 -60 64 -58 7 2 31
18 52 37 71 65 103 72 132 29 10 -16 22 -29 27 -29 4 0 7 -7 7 -15 0 -9 7 -18
15 -21 8 -4 15 -12 15 -20 0 -28 102 -9 125 23 11 14 16 16 26 5 7 -6 24 -12
37 -12 l23 0 -20 -26 c-12 -15 -21 -30 -21 -34 0 -4 36 -6 80 -5 80 1 126 -6
324 -50 l109 -25 16 23 c8 12 46 53 83 90 l69 68 122 -6 c67 -3 133 -8 147
-10 21 -5 28 1 49 41 28 52 140 160 188 180 38 16 80 9 186 -31 59 -22 107
-32 292 -61 68 -10 91 -26 202 -134 182 -177 223 -207 332 -235 l64 -16 32 33
c38 39 73 64 86 60 5 -1 9 2 9 7 0 5 26 7 58 5 76 -5 82 -6 82 -16 0 -4 5 -8
11 -8 5 0 24 -13 42 -30 32 -30 57 -39 57 -21 0 6 -4 12 -10 16 -5 3 -7 12 -4
19 3 8 1 17 -5 20 -6 4 -6 18 0 38 5 17 7 33 5 36 -2 2 2 15 9 29 8 15 12 30
9 35 -3 4 -1 8 5 8 5 0 12 8 15 18 9 28 45 62 64 62 40 -1 49 -21 58 -140 8
-107 13 -114 49 -74 29 34 115 165 115 177 -1 16 25 34 42 29 10 -2 18 -7 18
-11 0 -12 60 -74 67 -68 3 4 8 30 10 59 7 85 11 95 40 104 16 4 33 6 38 5 47
-13 118 -11 140 3 26 17 59 82 49 97 -3 5 -1 9 4 9 6 0 13 15 16 34 4 19 14
40 22 47 13 11 22 6 59 -34 23 -26 45 -47 48 -47 2 0 -9 55 -24 123 -20 86
-29 150 -30 215 0 50 2 95 4 100 3 4 7 34 11 68 3 33 13 87 21 118 9 32 18
102 21 155 6 104 24 146 95 219 36 37 45 38 93 15 32 -15 37 -15 60 0 22 15
24 21 16 42 -32 83 -52 245 -31 245 5 0 29 -23 54 -50 39 -44 67 -65 54 -42
-8 14 48 107 67 110 11 3 16 0 12 -7 -4 -6 0 -11 8 -11 14 0 20 12 17 32 0 4
11 11 26 15 24 5 64 33 49 33 -4 0 14 23 62 77 12 14 22 23 22 19 0 -4 12 6
28 21 15 15 26 31 24 35 -1 4 5 8 13 8 8 0 15 3 15 8 0 4 9 13 21 20 17 11 20
11 14 0 -3 -7 0 -5 8 5 8 9 22 17 31 17 11 0 14 5 10 12 -5 8 -2 9 9 5 11 -4
17 -1 17 8 0 7 9 17 20 20 11 3 20 14 20 22 0 9 3 14 6 11 7 -7 54 39 54 53 0
6 4 8 9 5 5 -4 11 -2 13 3 3 9 40 18 81 20 10 1 15 6 12 11 -3 6 -1 11 4 11
21 3 26 4 39 12 7 5 10 13 7 18 -4 5 -1 9 5 9 6 0 9 3 7 8 -7 12 68 77 89 77
22 0 44 -16 37 -28 -2 -4 -1 -6 4 -5 15 5 48 -27 51 -49 2 -13 -1 -23 -6 -23
-5 0 -8 -17 -6 -37 2 -21 5 -50 6 -65 0 -16 5 -28 10 -28 4 0 8 -11 8 -24 0
-14 4 -27 9 -31 10 -5 8 -71 -2 -112 -3 -12 -2 -36 3 -53 5 -18 5 -30 0 -30
-6 0 -5 -11 0 -26 6 -14 12 -51 14 -82 3 -31 6 -58 7 -59 1 -2 2 -8 3 -14 3
-25 93 -101 159 -134 89 -43 414 -135 522 -147 44 -5 118 -15 165 -22 l85 -13
140 47 c77 27 158 55 180 65 22 9 52 22 68 28 18 8 38 32 59 72 17 33 72 121
123 196 l93 137 -15 31 c-9 17 -20 31 -25 31 -5 0 -6 5 -3 10 3 6 1 10 -4 10
-6 0 -10 3 -9 8 3 10 -20 49 -40 71 -49 51 -80 90 -76 94 3 3 -5 16 -18 29
-13 14 -30 33 -38 44 -8 10 -30 38 -47 60 -18 23 -33 49 -33 58 0 9 -4 16 -8
16 -5 0 -15 19 -22 43 -8 23 -20 50 -28 60 -8 9 -12 17 -9 17 4 0 -8 24 -25
52 -36 58 -37 62 -41 130 -2 26 -6 51 -10 54 -4 4 -2 13 4 20 6 7 11 30 12 51
1 21 12 55 25 76 17 29 21 50 18 83 -2 24 0 44 4 44 4 0 7 14 8 30 0 17 -4 30
-9 30 -5 0 -9 5 -9 11 0 5 5 7 12 3 7 -4 8 -3 4 4 -4 6 -2 20 3 30 7 13 6 23
-2 32 -9 10 -9 11 1 6 6 -4 12 -2 12 3 0 6 -4 11 -9 11 -5 0 -9 25 -8 55 2 30
0 55 -4 55 -6 0 -9 18 -10 58 -1 12 -5 22 -10 22 -4 0 -6 6 -3 14 3 7 -9 37
-25 65 -17 29 -31 56 -31 61 0 6 -4 10 -8 10 -4 0 -8 9 -9 20 -1 12 4 20 14
20 12 0 14 6 8 28 -11 44 -16 65 -20 95 -2 15 -6 31 -9 36 -5 7 -15 54 -21 96
-2 11 -4 20 -5 20 -3 0 -16 109 -25 220 -15 182 -25 705 -13 705 4 0 3 12 -3
27 -11 31 -54 88 -149 200 -5 7 -10 17 -10 22 0 5 -6 16 -13 23 -7 7 -21 31
-31 53 -10 22 -24 53 -32 69 -8 16 -14 35 -14 43 0 7 -5 13 -12 13 -6 0 -9 3
-5 6 3 3 -5 36 -18 73 -12 36 -33 98 -44 136 -12 39 -26 79 -30 90 -13 28 -24
58 -27 72 -1 6 -8 29 -15 50 -7 21 -12 41 -11 46 1 4 -2 7 -6 7 -5 0 -8 18 -8
40 1 26 -4 44 -16 55 -10 8 -18 11 -18 7 -1 -21 -81 143 -104 213 -9 28 -22
55 -29 60 -7 6 -13 26 -15 45 -1 19 -10 42 -19 52 -9 10 -13 18 -9 18 4 0 -2
10 -14 22 -11 12 -20 25 -20 30 0 4 -14 23 -31 41 -18 17 -52 62 -76 100 -24
37 -48 65 -54 62 -5 -4 -9 3 -9 15 0 11 -10 28 -22 38 -12 9 -34 29 -50 44
-15 14 -28 24 -28 22 0 -12 -217 200 -268 261 -43 51 -65 94 -86 170 -9 33
-22 74 -28 90 -5 17 -10 38 -10 47 1 10 -42 60 -95 112 -91 89 -96 93 -114 77
-11 -9 -43 -21 -72 -27 -44 -9 -56 -8 -67 4 -12 13 -15 13 -26 -2 -12 -17 -47
-18 -72 -2 -8 4 -11 19 -9 36 3 19 -2 35 -17 51 -12 13 -25 32 -29 42 -4 11
-16 21 -27 24 -11 3 -20 11 -20 18 0 16 -27 45 -41 45 -16 0 -10 -25 10 -40
20 -13 20 -14 0 -31 -13 -11 -16 -20 -9 -24 6 -3 8 -10 5 -15 -3 -5 -1 -11 5
-15 14 -8 -8 -31 -33 -32 -15 -2 -18 3 -14 23 2 13 1 24 -3 24 -12 0 -20 44
-10 54 6 6 10 22 10 37 0 32 11 41 54 44 17 2 37 3 44 4 6 0 12 8 12 16 0 8 6
15 13 15 23 0 38 17 42 46 9 64 14 90 23 119 15 47 34 85 44 85 4 0 8 5 8 10
0 6 12 22 26 35 16 15 24 31 21 40 -5 11 0 14 18 13 16 -2 25 -9 25 -19 0 -18
26 -33 40 -24 5 3 11 1 15 -5 3 -5 15 -10 26 -10 11 0 17 -4 14 -10 -3 -5 -2
-10 4 -10 5 0 16 -3 25 -6 36 -14 12 13 -35 40 -29 16 -60 37 -70 47 -11 11
-23 19 -27 19 -16 0 -10 39 8 55 17 15 17 19 5 32 -17 17 -20 79 -5 88 6 4 10
12 9 18 -3 27 2 36 16 31 8 -4 15 -12 15 -20 0 -8 5 -14 10 -14 6 0 10 -7 10
-15 0 -8 5 -15 10 -15 6 0 10 -7 10 -15 0 -8 4 -15 8 -15 5 0 19 -20 32 -45
13 -25 26 -45 30 -45 8 0 35 -58 35 -74 0 -5 6 -11 12 -13 16 -6 -2 50 -28 88
-10 14 -16 29 -12 33 3 3 2 6 -4 6 -6 0 -16 14 -22 30 -5 17 -15 30 -20 30 -6
0 -11 6 -11 13 0 6 -11 26 -25 42 -13 17 -28 35 -32 40 -5 6 -8 22 -7 38 1 15
-3 27 -8 27 -5 0 -6 6 -1 13 4 6 9 23 11 37 1 14 12 37 22 52 11 15 20 32 20
38 0 5 4 10 9 10 5 0 8 12 6 27 -3 33 4 55 16 47 12 -7 11 -2 -7 35 -16 32
-25 98 -15 116 3 5 6 16 6 25 1 8 5 25 9 38 5 14 3 22 -4 22 -7 0 -9 12 -6 30
2 16 1 32 -3 34 -4 3 -8 50 -10 104 -2 103 5 126 34 102 14 -11 19 -7 16 13 0
4 4 7 10 7 5 0 7 5 4 10 -3 6 -1 10 5 10 7 0 10 7 6 15 -3 8 -1 15 5 15 6 0 9
7 6 15 -4 8 -2 17 2 19 6 4 24 71 35 136 1 3 4 10 8 16 4 6 4 14 1 18 -4 4 -8
13 -9 20 -1 7 -5 23 -9 35 -3 12 -2 21 4 21 5 0 13 -9 16 -20 3 -11 11 -20 16
-20 6 0 8 -4 5 -9 -3 -5 0 -14 7 -19 7 -6 19 -27 27 -47 7 -19 17 -35 22 -35
4 0 8 -7 8 -15 0 -8 6 -15 13 -15 8 0 22 -9 32 -20 10 -11 21 -17 26 -15 4 3
10 1 14 -4 12 -20 63 -39 74 -28 7 7 11 7 11 1 0 -6 6 -11 13 -12 44 -6 57 -9
69 -20 11 -9 17 -9 26 0 7 7 12 8 12 4 0 -5 7 -3 15 4 8 7 21 10 29 7 7 -3 25
1 40 8 14 8 26 11 26 8 0 -3 6 -1 13 4 6 5 19 9 27 9 8 -1 50 36 95 81 96 98
106 109 98 117 -4 3 -1 6 5 6 20 0 176 165 209 221 9 15 29 33 45 40 15 6 28
18 28 27 0 8 6 20 13 26 8 6 21 32 31 57 18 49 93 147 114 148 6 1 12 8 12 16
0 19 -1 13 16 85 8 34 23 79 33 101 12 25 15 39 8 38 -19 -3 -67 12 -67 22 0
15 -42 59 -52 53 -4 -3 -8 1 -8 9 0 8 -11 35 -24 60 -14 25 -21 48 -18 52 4 4
2 6 -3 5 -24 -5 -35 2 -49 29 -9 16 -12 31 -9 35 4 3 1 6 -6 6 -6 0 -27 16
-45 35 -19 19 -32 35 -30 35 4 0 -35 46 -63 76 -7 7 -13 18 -13 24 0 6 -4 9
-9 6 -4 -3 -13 6 -19 19 -7 14 -18 25 -26 25 -8 0 -18 9 -21 20 -4 11 -10 18
-15 15 -11 -7 -70 78 -70 99 0 9 -4 16 -10 16 -5 0 -10 8 -10 18 0 10 -4 22
-10 28 -5 5 -11 18 -13 29 -1 11 -5 25 -8 30 -4 6 -17 42 -29 80 -12 39 -27
76 -33 83 -5 6 -7 12 -3 12 4 0 0 12 -7 28 -8 15 -22 56 -32 92 -9 36 -22 71
-27 78 -6 6 -7 12 -4 12 12 0 -66 142 -81 147 -7 3 -13 11 -13 18 0 7 -3 15
-7 17 -11 5 -73 85 -73 95 0 4 -10 20 -23 35 -97 118 -170 218 -160 218 5 0 3
4 -2 8 -6 4 -16 18 -23 32 -14 29 -34 63 -42 70 -3 3 -19 26 -35 52 -17 27
-34 48 -38 48 -5 0 -6 4 -3 9 13 20 -116 111 -146 103 -5 -1 -8 3 -8 9 0 6 -6
9 -14 6 -8 -3 -16 -2 -18 3 -2 4 -12 10 -23 12 -11 1 -23 6 -26 11 -3 4 -15 9
-27 12 -42 8 -280 133 -313 165 -35 33 -129 86 -129 73 0 -5 -4 -2 -9 5 -8 14
-67 17 -111 7 -14 -3 -43 -8 -65 -10 -61 -8 -74 -11 -81 -17 -3 -4 -12 -4 -20
-1 -8 3 -14 0 -14 -7 0 -6 -4 -9 -8 -6 -5 3 -15 -3 -23 -12 -8 -9 -27 -26 -42
-37 -15 -11 -27 -24 -27 -30 0 -6 -9 -16 -20 -23 -11 -7 -20 -17 -20 -23 0 -6
-7 -18 -16 -26 -14 -15 -16 -13 -14 18 4 72 1 87 -22 95 -13 5 -27 7 -32 5 -5
-1 -16 1 -25 5 -9 4 -62 6 -117 5 l-102 -2 -21 30 c-12 16 -28 45 -36 63 -8
18 -14 25 -15 16 0 -21 -30 -13 -30 8 0 21 -23 17 -49 -8 -18 -16 -28 -19 -40
-11 -9 5 -27 8 -41 6 -54 -8 -154 3 -158 17 -2 6 -8 8 -12 5 -5 -3 -18 3 -29
14 -11 11 -22 17 -25 14 -3 -3 -12 0 -21 7 -8 7 -15 10 -15 6 0 -14 -100 50
-106 68 -4 11 -13 26 -20 34 -12 11 -14 11 -14 -2 0 -9 -6 -15 -12 -14 -7 2
-14 -7 -16 -19 -3 -19 -9 -21 -42 -18 -21 2 -52 11 -70 20 -18 10 -29 12 -25
5 6 -9 2 -9 -13 -1 -11 6 -48 10 -82 10 -34 -1 -65 3 -69 7 -3 5 -17 11 -31
13 -14 1 -27 6 -30 10 -3 4 -16 8 -29 9 -14 0 -37 10 -52 21 -20 15 -29 17
-32 8 -4 -9 -6 -9 -6 0 -1 9 -8 10 -26 3 -19 -7 -27 -6 -34 8 -6 10 -11 12
-11 4 0 -10 -5 -10 -20 -2 -14 8 -20 8 -20 0 0 -8 -6 -8 -20 0 -11 6 -20 8
-20 4 0 -4 -9 1 -19 10 -18 17 -19 16 -27 -16 -4 -18 -9 -27 -11 -20 -3 6 -9
9 -14 6 -6 -3 -16 -1 -24 6 -9 7 -15 8 -20 0 -4 -7 -13 -7 -27 1 -16 9 -19 8
-13 -2 5 -8 4 -10 -4 -5 -6 4 -30 9 -52 11 -23 3 -47 9 -54 15 -13 11 -144 8
-163 -3 -6 -4 -13 -3 -17 3 -3 5 -11 10 -16 10 -6 0 -7 -4 -4 -10 4 -6 -2 -7
-17 -2 -13 4 -45 7 -73 6 -27 0 -56 3 -62 9 -9 6 -13 6 -13 -1 0 -6 -7 -9 -15
-6 -8 4 -15 2 -15 -3 0 -8 -21 -12 -74 -13 -11 -1 -27 -5 -38 -11 -12 -7 -18
-6 -18 1 0 6 -4 8 -10 5 -18 -11 -50 -14 -50 -4 0 6 -7 6 -19 -1 -14 -7 -22
-7 -26 0 -4 7 -11 7 -18 2 -12 -9 -43 -9 -84 1 -16 4 -20 2 -16 -9 3 -8 10
-14 15 -14 6 0 5 -7 -2 -15 -11 -13 -15 -13 -21 -3 -6 8 -9 9 -9 2 0 -7 -15
-12 -32 -11 -18 0 -70 -3 -115 -6 -51 -4 -83 -3 -83 3 0 5 -7 7 -15 4 -8 -3
-20 -2 -27 2 -7 5 -16 9 -20 10 -5 1 -10 3 -13 4 -6 3 -12 5 -42 15 -13 4 -23
11 -23 16 0 5 -5 9 -12 9 -6 0 -28 17 -49 39 -21 21 -40 37 -42 34 -3 -2 -7 8
-11 22 -4 14 -13 25 -22 25 -8 0 -12 5 -8 11 8 13 -78 10 -87 -4 -3 -4 -12
-10 -20 -11 -8 -2 -26 -6 -41 -11 -16 -4 -36 -4 -45 1 -10 4 -28 8 -40 9 -13
0 -28 6 -35 13 -15 15 -25 15 -33 2z"/>
<path d="M9961 8382 c6 -10 19 -23 29 -28 10 -5 52 -33 93 -61 42 -29 79 -53
83 -53 4 0 16 -8 26 -17 18 -16 58 -30 43 -15 -4 4 -10 7 -13 7 -4 -1 -17 8
-29 20 -39 36 -53 46 -53 38 0 -4 -11 5 -25 20 -14 15 -32 27 -40 27 -8 0 -18
6 -22 14 -4 8 -10 15 -13 15 -17 0 -39 15 -34 22 3 5 2 8 -3 7 -4 -1 -18 3
-31 10 -21 12 -22 12 -11 -6z"/>
<path d="M9766 8368 c3 -5 10 -6 15 -3 13 9 11 12 -6 12 -8 0 -12 -4 -9 -9z"/>
<path d="M10257 8193 c-8 -7 11 -33 24 -33 5 0 9 5 9 10 0 6 -7 10 -16 10 -8
0 -12 5 -9 10 7 11 2 13 -8 3z"/>
<path d="M9614 8038 c-5 -8 -2 -9 9 -5 10 3 17 2 17 -4 0 -6 5 -7 11 -3 8 4 7
9 -2 15 -19 12 -27 11 -35 -3z"/>
<path d="M11440 5336 c0 -2 8 -10 18 -17 15 -13 16 -12 3 4 -13 16 -21 21 -21
13z"/>
<path d="M4730 1293 c-7 -16 -15 -23 -17 -16 -4 10 -10 10 -25 2 -21 -11 -21
-12 -2 -22 18 -11 54 -20 54 -14 14 85 12 95 -10 50z"/>
</g>
</svg>
